<?xml version="1.0" encoding="utf-8"?>
<!-- Generator: Adobe Illustrator 24.0.0, SVG Export Plug-In . SVG Version: 6.00 Build 0)  -->
<svg version="1.1" id="Layer_1" xmlns="http://www.w3.org/2000/svg" xmlns:xlink="http://www.w3.org/1999/xlink" x="0px" y="0px"
	 viewBox="0 0 80 24" style="enable-background:new 0 0 80 24;" xml:space="preserve">
<style type="text/css">
	.st0{fill:#FF0000;}
	.st1{fill:#FF0000;stroke:#FFFFFF;stroke-width:1.2;}
	.st2{fill:#FFFFFF;}
</style>
<ellipse class="st0" cx="12.2" cy="12" rx="12.2" ry="12"/>
<ellipse class="st1" cx="12.2" cy="12" rx="7.3" ry="7.2"/>
<polygon class="st2" points="9.7,15.5 16.1,12 9.7,8.5 "/>
<path d="M37.4,9.6c-0.6,2.9-1,6.3-1.2,7.8H36c-0.2-1.5-0.6-4.9-1.2-7.7l-1.5-7h-4.5v18.9h2.8V6l0.3,1.5l2.9,14.1h2.8l2.8-14.1
	L40.6,6v15.5h2.8V2.7h-4.6C38.9,2.7,37.4,9.6,37.4,9.6z"/>
<path d="M51,18.7c-0.3,0.5-0.8,0.9-1.4,0.9c-0.6,0-0.9-0.5-0.9-1.7V7.8h-3.2V18c0,2.5,0.9,3.7,2.8,3.7c1.3,0,2.3-0.6,3.1-1.9h0.1
	l0.3,1.7h2.5V7.8H51L51,18.7L51,18.7L51,18.7z"/>
<path d="M60.4,13.2c-1-0.7-1.7-1.2-1.7-2.3c0-0.8,0.4-1.2,1.2-1.2c0.9,0,1.2,0.6,1.2,2.7l2.7-0.1c0.2-3.3-0.9-4.7-3.9-4.7
	c-2.7,0-4.1,1.2-4.1,3.6c0,2.2,1.1,3.2,2.9,4.6c1.6,1.2,2.5,1.8,2.5,2.8c0,0.7-0.5,1.2-1.3,1.2c-1,0-1.5-0.9-1.4-2.4l-2.7,0
	c-0.4,2.9,0.8,4.5,3.9,4.5c2.8,0,4.2-1.2,4.2-3.7C64.1,15.9,62.9,15,60.4,13.2z"/>
<polygon points="68.9,7.8 65.8,7.8 65.8,21.5 68.9,21.5 68.9,7.8 "/>
<path d="M67.4,2.3c-1.2,0-1.7,0.4-1.7,1.9c0,1.5,0.6,1.9,1.7,1.9c1.2,0,1.7-0.4,1.7-1.9C69.1,2.8,68.6,2.3,67.4,2.3z"/>
<path d="M79.2,16.6l-2.8-0.1c0,2.4-0.3,3.2-1.2,3.2c-0.9,0-1.1-0.9-1.1-3.7v-2.7c0-2.8,0.2-3.6,1.1-3.6c0.9,0,1.1,0.8,1.1,3.4
	l2.8-0.2c0.2-2.1-0.1-3.6-0.9-4.4c-0.6-0.6-1.6-0.9-2.9-0.9c-3.1,0-4.4,1.6-4.4,6.2v1.9c0,4.7,1.1,6.2,4.3,6.2
	c1.3,0,2.3-0.3,2.9-0.9C78.9,20.1,79.2,18.7,79.2,16.6L79.2,16.6z"/>
</svg>
